<svg width="16" height="17" viewBox="0 0 16 17" fill="none" xmlns="http://www.w3.org/2000/svg">
<g clip-path="url(#clip0_1_83)">
<path d="M13.7142 0.499939H4.1428C4.06423 0.499939 3.99995 0.564225 3.99995 0.642796V1.6428C3.99995 1.72137 4.06423 1.78565 4.1428 1.78565H12.9999V14.0714C12.9999 14.1499 13.0642 14.2142 13.1428 14.2142H14.1428C14.2214 14.2142 14.2857 14.1499 14.2857 14.0714V1.07137C14.2857 0.755296 14.0303 0.499939 13.7142 0.499939ZM11.4285 2.78565H2.28566C1.96959 2.78565 1.71423 3.04101 1.71423 3.35708V12.8339C1.71423 12.9857 1.77495 13.1303 1.88209 13.2374L4.97673 16.3321C5.01602 16.3714 5.06066 16.4035 5.10888 16.4303V16.4642H5.18388C5.24638 16.4874 5.31245 16.4999 5.3803 16.4999H11.4285C11.7446 16.4999 11.9999 16.2446 11.9999 15.9285V3.35708C11.9999 3.04101 11.7446 2.78565 11.4285 2.78565ZM5.10709 14.6464L3.56959 13.1071H5.10709V14.6464ZM10.7142 15.2142H6.24995V12.6785C6.24995 12.2839 5.93031 11.9642 5.53566 11.9642H2.99995V4.07137H10.7142V15.2142Z" fill="#666E7C"/>
</g>
<defs>
<clipPath id="clip0_1_83">
<rect width="16" height="16" fill="white" transform="translate(0 0.5)"/>
</clipPath>
</defs>
</svg>
