<svg width="16" height="16" viewBox="0 0 16 16" fill="none" xmlns="http://www.w3.org/2000/svg">
<path d="M7.5 2.5V2C7.5 1.86739 7.55268 1.74021 7.64645 1.64645C7.74021 1.55268 7.86739 1.5 8 1.5C8.13261 1.5 8.25979 1.55268 8.35355 1.64645C8.44732 1.74021 8.5 1.86739 8.5 2V2.5C8.5 2.63261 8.44732 2.75979 8.35355 2.85355C8.25979 2.94732 8.13261 3 8 3C7.86739 3 7.74021 2.94732 7.64645 2.85355C7.55268 2.75979 7.5 2.63261 7.5 2.5ZM12 8C12 8.79113 11.7654 9.56448 11.3259 10.2223C10.8864 10.8801 10.2616 11.3928 9.53073 11.6955C8.79983 11.9983 7.99556 12.0775 7.21964 11.9231C6.44371 11.7688 5.73098 11.3878 5.17157 10.8284C4.61216 10.269 4.2312 9.55628 4.07686 8.78036C3.92252 8.00444 4.00173 7.20017 4.30448 6.46927C4.60723 5.73836 5.11992 5.11365 5.77772 4.67412C6.43552 4.2346 7.20887 4 8 4C9.06051 4.00116 10.0773 4.42296 10.8271 5.17285C11.577 5.92275 11.9988 6.93949 12 8ZM11 8C11 7.40666 10.8241 6.82664 10.4944 6.33329C10.1648 5.83994 9.69623 5.45542 9.14805 5.22836C8.59987 5.0013 7.99667 4.94189 7.41473 5.05764C6.83279 5.1734 6.29824 5.45912 5.87868 5.87868C5.45912 6.29824 5.1734 6.83279 5.05764 7.41473C4.94189 7.99667 5.0013 8.59987 5.22836 9.14805C5.45542 9.69623 5.83994 10.1648 6.33329 10.4944C6.82664 10.8241 7.40666 11 8 11C8.7954 10.9992 9.55798 10.6828 10.1204 10.1204C10.6828 9.55798 10.9992 8.7954 11 8ZM3.64625 4.35375C3.74007 4.44757 3.86732 4.50028 4 4.50028C4.13268 4.50028 4.25993 4.44757 4.35375 4.35375C4.44757 4.25993 4.50028 4.13268 4.50028 4C4.50028 3.86732 4.44757 3.74007 4.35375 3.64625L3.85375 3.14625C3.75993 3.05243 3.63268 2.99972 3.5 2.99972C3.36732 2.99972 3.24007 3.05243 3.14625 3.14625C3.05243 3.24007 2.99972 3.36732 2.99972 3.5C2.99972 3.63268 3.05243 3.75993 3.14625 3.85375L3.64625 4.35375ZM3.64625 11.6462L3.14625 12.1462C3.05243 12.2401 2.99972 12.3673 2.99972 12.5C2.99972 12.6327 3.05243 12.7599 3.14625 12.8538C3.24007 12.9476 3.36732 13.0003 3.5 13.0003C3.63268 13.0003 3.75993 12.9476 3.85375 12.8538L4.35375 12.3538C4.40021 12.3073 4.43706 12.2521 4.4622 12.1914C4.48734 12.1308 4.50028 12.0657 4.50028 12C4.50028 11.9343 4.48734 11.8692 4.4622 11.8086C4.43706 11.7479 4.40021 11.6927 4.35375 11.6462C4.3073 11.5998 4.25214 11.5629 4.19145 11.5378C4.13075 11.5127 4.0657 11.4997 4 11.4997C3.9343 11.4997 3.86925 11.5127 3.80855 11.5378C3.74786 11.5629 3.69271 11.5998 3.64625 11.6462ZM12 4.5C12.0657 4.50005 12.1307 4.48716 12.1914 4.46207C12.2521 4.43697 12.3073 4.40017 12.3538 4.35375L12.8538 3.85375C12.9476 3.75993 13.0003 3.63268 13.0003 3.5C13.0003 3.36732 12.9476 3.24007 12.8538 3.14625C12.7599 3.05243 12.6327 2.99972 12.5 2.99972C12.3673 2.99972 12.2401 3.05243 12.1462 3.14625L11.6462 3.64625C11.5762 3.71618 11.5286 3.8053 11.5092 3.90235C11.4899 3.99939 11.4998 4.09998 11.5377 4.1914C11.5756 4.28281 11.6397 4.36092 11.722 4.41586C11.8043 4.4708 11.9011 4.50008 12 4.5ZM12.3538 11.6462C12.2599 11.5524 12.1327 11.4997 12 11.4997C11.8673 11.4997 11.7401 11.5524 11.6462 11.6462C11.5524 11.7401 11.4997 11.8673 11.4997 12C11.4997 12.1327 11.5524 12.2599 11.6462 12.3538L12.1462 12.8538C12.1927 12.9002 12.2479 12.9371 12.3086 12.9622C12.3692 12.9873 12.4343 13.0003 12.5 13.0003C12.5657 13.0003 12.6308 12.9873 12.6914 12.9622C12.7521 12.9371 12.8073 12.9002 12.8538 12.8538C12.9002 12.8073 12.9371 12.7521 12.9622 12.6914C12.9873 12.6308 13.0003 12.5657 13.0003 12.5C13.0003 12.4343 12.9873 12.3692 12.9622 12.3086C12.9371 12.2479 12.9002 12.1927 12.8538 12.1462L12.3538 11.6462ZM2.5 7.5H2C1.86739 7.5 1.74021 7.55268 1.64645 7.64645C1.55268 7.74021 1.5 7.86739 1.5 8C1.5 8.13261 1.55268 8.25979 1.64645 8.35355C1.74021 8.44732 1.86739 8.5 2 8.5H2.5C2.63261 8.5 2.75979 8.44732 2.85355 8.35355C2.94732 8.25979 3 8.13261 3 8C3 7.86739 2.94732 7.74021 2.85355 7.64645C2.75979 7.55268 2.63261 7.5 2.5 7.5ZM8 13C7.86739 13 7.74021 13.0527 7.64645 13.1464C7.55268 13.2402 7.5 13.3674 7.5 13.5V14C7.5 14.1326 7.55268 14.2598 7.64645 14.3536C7.74021 14.4473 7.86739 14.5 8 14.5C8.13261 14.5 8.25979 14.4473 8.35355 14.3536C8.44732 14.2598 8.5 14.1326 8.5 14V13.5C8.5 13.3674 8.44732 13.2402 8.35355 13.1464C8.25979 13.0527 8.13261 13 8 13ZM14 7.5H13.5C13.3674 7.5 13.2402 7.55268 13.1464 7.64645C13.0527 7.74021 13 7.86739 13 8C13 8.13261 13.0527 8.25979 13.1464 8.35355C13.2402 8.44732 13.3674 8.5 13.5 8.5H14C14.1326 8.5 14.2598 8.44732 14.3536 8.35355C14.4473 8.25979 14.5 8.13261 14.5 8C14.5 7.86739 14.4473 7.74021 14.3536 7.64645C14.2598 7.55268 14.1326 7.5 14 7.5Z" fill="#666E7C"/>
</svg>
